<?xml version="1.0" standalone="no"?>
<!DOCTYPE svg PUBLIC "-//W3C//DTD SVG 20010904//EN"
 "http://www.w3.org/TR/2001/REC-SVG-20010904/DTD/svg10.dtd">
<svg version="1.0" xmlns="http://www.w3.org/2000/svg"
 width="900.000000pt" height="900.000000pt" viewBox="0 0 900.000000 900.000000"
 preserveAspectRatio="xMidYMid meet">

<g transform="translate(0.000000,900.000000) scale(0.100000,-0.100000)"
fill="#000000" stroke="none">
<path d="M3965 7875 c-60 -24 -157 -69 -215 -101 -132 -71 -220 -106 -365
-147 -63 -18 -115 -34 -115 -37 0 -3 4 -11 9 -19 9 -14 28 -9 216 46 76 22
194 72 239 101 23 14 42 25 43 24 2 -1 49 21 105 48 57 28 108 50 114 50 5 0
33 11 62 25 37 18 50 29 46 40 -8 21 -16 20 -139 -30z"/>
<path d="M2528 7527 c-20 -12 -41 -30 -45 -39 -4 -9 -55 -50 -113 -92 -135
-96 -301 -242 -429 -378 -143 -150 -131 -172 14 -25 63 64 152 147 197 186 46
38 101 86 123 106 22 20 80 63 128 96 49 34 92 71 97 83 4 13 26 37 47 54 44
36 35 41 -19 9z"/>
<path d="M3065 7539 c-38 -5 -92 -16 -120 -25 -70 -22 -299 -136 -303 -151 -6
-22 23 -14 122 32 152 72 251 105 311 105 48 0 53 2 57 25 3 14 5 24 4 24 0
-1 -32 -5 -71 -10z"/>
<path d="M3320 7455 c0 -20 -54 -52 -102 -60 -33 -6 -37 -9 -26 -22 15 -19 77
-12 113 11 19 12 25 25 25 51 0 19 -2 35 -5 35 -3 0 -5 -7 -5 -15z"/>
<path d="M4099 7270 c-80 -56 -105 -88 -112 -149 -14 -118 -77 -205 -167 -229
-42 -11 -57 -7 -90 24 -34 32 -105 61 -167 69 -48 6 -53 5 -53 -13 0 -16 9
-20 60 -26 70 -8 133 -33 174 -69 31 -27 99 -40 116 -23 6 6 10 7 10 3 0 -9
23 8 65 50 21 21 38 52 49 94 26 90 51 126 124 177 23 17 32 31 32 52 0 16 4
40 10 54 5 14 8 26 7 25 -1 0 -27 -18 -58 -39z"/>
<path d="M3818 6823 c7 -3 16 -2 19 1 4 3 -2 6 -13 5 -11 0 -14 -3 -6 -6z"/>
<path d="M5605 6224 c-62 -32 -95 -82 -95 -144 l0 -31 23 22 c50 48 110 45
134 -7 10 -22 8 -34 -14 -85 -18 -42 -31 -59 -44 -59 -11 0 -19 -4 -19 -9 0
-13 68 -100 127 -163 29 -31 53 -62 53 -69 0 -7 2 -10 5 -7 3 3 0 17 -6 32
-16 35 -9 39 37 20 45 -18 84 -51 84 -71 0 -7 5 -13 10 -13 17 0 11 -36 -8
-53 -10 -10 -21 -17 -24 -17 -10 0 -45 35 -63 63 -10 15 -20 26 -22 23 -3 -2
4 -17 15 -33 11 -15 23 -46 27 -68 16 -100 15 -99 138 -140 62 -20 118 -39
125 -42 8 -3 12 6 12 27 0 32 -88 207 -115 230 -20 16 -19 40 1 55 14 10 15
17 5 48 -15 44 -62 82 -113 91 -26 5 -56 25 -106 72 -81 74 -97 112 -64 147
65 69 34 157 -56 157 -30 0 -32 2 -22 20 13 24 13 24 -25 4z m301 -750 c-3 -8
-2 -12 3 -9 5 3 12 1 16 -5 3 -5 -3 -10 -14 -10 -20 0 -28 19 -14 33 11 12 15
8 9 -9z"/>
<path d="M4488 6073 c-23 -27 -41 -64 -49 -103 -4 -19 -19 -63 -33 -97 -24
-57 -26 -70 -20 -143 7 -77 8 -81 28 -76 12 3 26 6 32 6 6 0 12 24 13 57 1 31
7 63 13 70 8 10 8 17 0 25 -6 6 -7 17 -2 27 5 9 13 30 20 46 6 17 20 41 30 55
19 23 21 24 34 8 7 -10 18 -18 23 -18 6 0 19 -11 29 -25 16 -22 73 -38 61 -17
-3 4 8 7 24 8 15 1 26 -2 24 -6 -5 -8 51 -6 112 4 46 8 64 1 110 -41 30 -28
68 -60 129 -108 18 -14 37 -25 44 -25 7 0 10 -7 6 -15 -3 -9 0 -15 10 -15 8 0
12 -4 9 -10 -11 -18 21 -11 56 13 19 12 35 30 37 39 4 21 -52 84 -92 105 -17
9 -64 44 -104 78 -72 62 -140 93 -175 79 -9 -3 -24 -1 -35 5 -27 14 -51 4 -63
-25 -13 -35 -45 -30 -71 10 -26 40 -75 75 -120 86 -18 4 -40 11 -49 14 -9 4
-22 -1 -31 -11z"/>
<path d="M5510 6021 c0 -6 4 -13 10 -16 6 -3 7 1 4 9 -7 18 -14 21 -14 7z"/>
<path d="M3524 6001 c-2 -2 -4 -25 -4 -50 0 -50 28 -100 117 -210 24 -30 55
-73 69 -97 17 -28 30 -41 40 -37 25 9 16 30 -38 89 -29 31 -66 76 -81 101 -57
91 -58 124 -2 144 l34 13 -21 28 c-17 25 -25 28 -65 26 -24 -2 -47 -5 -49 -7z"/>
<path d="M3019 5921 c-14 -5 -35 -14 -47 -20 -17 -9 -22 -9 -22 0 0 18 -10 5
-15 -20 -2 -12 -16 -44 -31 -71 -21 -39 -46 -63 -113 -109 -49 -34 -108 -86
-136 -120 -82 -100 -149 -136 -280 -155 -16 -2 13 -3 65 -2 102 3 146 10 169
29 9 7 24 19 34 27 10 8 53 49 95 91 43 42 91 83 108 92 16 9 45 31 64 49 18
18 29 27 25 19 -5 -9 -4 -12 3 -7 7 4 12 13 12 21 0 7 20 36 45 63 55 61 113
83 221 86 41 0 74 2 74 3 0 1 -7 9 -16 17 -12 13 -38 16 -122 15 -59 0 -119
-4 -133 -8z"/>
<path d="M4950 5710 c8 -5 20 -10 25 -10 6 0 3 5 -5 10 -8 5 -19 10 -25 10 -5
0 -3 -5 5 -10z"/>
<path d="M5020 5680 c8 -5 24 -10 34 -10 26 0 18 6 -19 14 -22 5 -26 4 -15 -4z"/>
<path d="M3481 5666 c2 -2 15 -9 29 -15 24 -11 24 -11 6 3 -16 13 -49 24 -35
12z"/>
<path d="M4553 5663 c9 -2 23 -2 30 0 6 3 -1 5 -18 5 -16 0 -22 -2 -12 -5z"/>
<path d="M4398 5633 c6 -2 18 -2 25 0 6 3 1 5 -13 5 -14 0 -19 -2 -12 -5z"/>
<path d="M3580 5531 c0 -5 9 -7 20 -4 11 3 20 7 20 9 0 2 -9 4 -20 4 -11 0
-20 -4 -20 -9z"/>
<path d="M3195 5450 c-14 -5 -5 -9 30 -13 26 -4 50 -6 52 -4 8 8 -64 23 -82
17z"/>
<path d="M3112 5431 c-10 -6 -7 -13 13 -27 30 -22 38 -52 19 -71 -15 -15 -64
-17 -64 -3 0 6 14 10 30 10 28 0 29 2 18 20 -7 11 -17 20 -21 20 -5 0 -15 6
-23 14 -11 11 -11 16 -1 19 7 3 5 6 -5 6 -9 1 -19 -3 -23 -9 -3 -5 -12 -7 -19
-4 -8 3 -17 1 -21 -5 -3 -6 -19 -11 -35 -11 -16 0 -35 -6 -42 -12 -7 -7 -29
-15 -48 -16 -19 -2 -39 -7 -45 -12 -5 -4 -26 -11 -45 -15 -19 -4 -41 -11 -50
-16 -8 -4 -60 -24 -115 -45 -55 -20 -115 -43 -132 -50 -32 -14 -88 -37 -128
-54 -80 -33 -381 -186 -515 -262 -297 -167 -707 -471 -952 -706 -59 -56 -65
-66 -53 -79 8 -8 15 -23 15 -34 0 -20 1 -24 61 -274 154 -636 439 -1223 807
-1665 67 -80 305 -320 363 -366 28 -21 67 -54 87 -73 48 -43 284 -219 342
-255 25 -15 68 -41 95 -58 103 -64 214 -126 237 -133 12 -4 25 -10 28 -14 8
-10 196 -98 221 -103 8 -2 16 -6 19 -10 6 -7 122 -53 189 -74 35 -11 41 -11
32 -1 -8 10 -7 14 4 14 7 0 14 -3 13 -6 -2 -24 3 -33 15 -24 21 17 55 22 61 8
7 -19 -5 -27 -21 -13 -7 6 -16 8 -20 4 -11 -10 6 -19 37 -19 16 0 27 -4 24 -9
-9 -15 24 -8 40 8 12 12 13 20 6 35 -7 13 -7 19 0 19 14 0 12 67 -2 73 -10 4
-10 6 0 6 7 1 12 16 12 41 0 33 -3 40 -20 40 -19 0 -20 7 -20 200 0 193 -1
200 -20 200 -20 0 -20 7 -20 320 0 313 0 320 -20 320 -19 0 -20 7 -20 240 0
233 -1 240 -20 240 -19 0 -20 7 -20 240 0 233 -1 240 -20 240 -19 0 -20 7 -20
200 0 193 -1 200 -20 200 -20 0 -20 7 -20 400 0 393 0 400 -20 400 -19 0 -20
7 -20 160 0 153 -1 160 -20 160 -20 0 -20 7 -20 319 0 296 1 320 18 325 9 2 0
2 -20 -1 -20 -3 -45 0 -55 6 -15 9 -13 11 17 11 29 1 31 3 15 10 -26 11 -47
12 -63 1z m-134 -69 c-21 -4 -24 -18 -6 -24 8 -3 7 -6 -3 -10 -11 -4 -15 1
-15 22 0 23 3 26 20 21 18 -4 18 -6 4 -9z m-61 -18 c-3 -3 -12 -4 -19 -1 -8 3
-5 6 6 6 11 1 17 -2 13 -5z m203 -4134 c0 -5 -5 -10 -11 -10 -5 0 -7 5 -4 10
3 6 8 10 11 10 2 0 4 -4 4 -10z m138 -68 c8 -6 2 -9 -18 -9 -20 0 -26 3 -18 9
7 4 15 8 18 8 3 0 11 -4 18 -8z m218 -29 c-10 -10 -19 5 -10 18 6 11 8 11 12
0 2 -7 1 -15 -2 -18z m-64 -28 c0 -5 -5 -10 -12 -11 -7 -2 -6 -1 1 3 8 4 7 8
-2 15 -11 8 -11 9 -1 6 8 -2 14 -8 14 -13z m79 -26 l24 -22 -30 7 c-36 9 -39
12 -30 25 8 14 8 14 36 -10z"/>
<path d="M3208 5423 c7 -3 16 -2 19 1 4 3 -2 6 -13 5 -11 0 -14 -3 -6 -6z"/>
<path d="M4930 5093 c-34 -13 -111 -53 -214 -112 -67 -38 -184 -129 -259 -200
l-71 -69 59 -12 c37 -8 78 -9 110 -5 60 10 107 10 202 0 62 -7 77 -5 116 14
37 18 49 31 70 79 51 115 64 190 51 275 -7 38 -23 45 -64 30z"/>
<path d="M8047 4730 c-27 -62 -20 -414 8 -403 10 3 13 -13 12 -69 -1 -40 2
-81 7 -91 6 -13 5 -16 -6 -12 -22 9 -46 -57 -53 -145 -4 -41 -11 -95 -16 -119
-5 -24 -8 -45 -6 -47 9 -9 47 35 47 55 0 12 12 33 26 46 17 16 24 30 20 41 -4
10 5 30 22 52 16 21 30 44 31 52 1 8 6 66 11 129 5 62 11 120 14 127 3 8 1 14
-4 14 -16 0 -30 38 -35 95 -2 31 -8 62 -14 69 -7 9 -4 17 10 30 14 11 17 21
11 29 -5 7 -13 33 -16 59 -4 26 -13 53 -19 60 -7 7 -17 24 -24 38 l-11 25 -15
-35z m20 -297 c-3 -10 -5 -4 -5 12 0 17 2 24 5 18 2 -7 2 -21 0 -30z"/>
<path d="M6069 4726 c-61 -30 -62 -121 -2 -208 19 -29 44 -71 55 -93 25 -49
152 -189 194 -216 37 -23 83 -24 127 -5 52 23 58 31 76 87 18 53 18 54 62 57
41 3 46 0 89 -46 39 -43 52 -50 96 -56 29 -3 57 -13 64 -21 7 -8 15 -55 18
-104 4 -79 1 -100 -29 -202 -28 -97 -39 -119 -71 -151 -21 -20 -38 -42 -38
-48 0 -15 -163 -173 -230 -223 -30 -22 -89 -74 -130 -115 -41 -41 -106 -95
-145 -120 -38 -26 -89 -60 -112 -78 -47 -36 -126 -66 -180 -67 -29 -1 -40 5
-63 33 -16 19 -34 55 -41 80 -13 48 -76 170 -88 170 -15 0 -73 65 -93 104 -12
23 -36 59 -54 81 -18 23 -46 70 -62 106 -17 36 -46 87 -66 113 -20 26 -36 54
-36 61 0 8 -20 33 -44 57 -23 24 -53 63 -66 88 -12 25 -35 59 -51 76 -16 16
-45 68 -64 113 -19 46 -51 102 -70 124 -20 23 -41 58 -47 79 -6 21 -19 45 -29
54 -23 21 -96 29 -133 15 -27 -11 -28 -14 -23 -56 4 -24 15 -68 26 -97 10 -29
37 -105 60 -168 30 -82 50 -122 70 -140 16 -14 46 -54 66 -89 21 -35 59 -88
86 -117 27 -30 51 -66 55 -81 13 -60 16 -70 44 -128 96 -202 119 -254 129
-291 11 -42 61 -92 146 -146 22 -14 79 -64 127 -112 48 -47 92 -86 97 -86 5 0
26 -10 46 -21 54 -32 154 -23 227 20 58 35 181 95 213 105 15 4 35 -4 64 -26
l44 -32 -6 -60 c-3 -34 -15 -87 -26 -120 -25 -70 -108 -214 -132 -226 -9 -5
-36 -32 -59 -60 l-43 -51 39 6 c47 8 88 16 259 51 312 64 666 183 953 321 68
32 112 59 112 68 0 8 5 15 11 15 5 0 7 -6 3 -12 -4 -7 -3 -9 2 -5 4 4 9 20 10
34 0 14 8 30 18 35 9 5 16 16 16 24 0 18 28 82 45 104 7 8 20 42 30 75 10 33
23 66 29 74 5 7 12 25 14 40 4 31 9 37 52 59 38 19 64 76 73 156 5 46 3 49
-24 59 -32 13 -53 64 -64 162 -7 62 -37 178 -60 230 -7 17 -17 44 -21 60 -4
17 -20 63 -36 103 -16 41 -33 92 -36 115 -7 41 -9 42 -56 49 -26 4 -49 8 -51
10 -1 2 -22 26 -45 53 -38 45 -58 63 -137 120 -20 15 -28 14 -115 -16 -76 -26
-116 -33 -221 -40 -155 -9 -223 -1 -250 32 -19 23 -24 24 -156 24 -134 0 -137
1 -203 33 -55 27 -79 47 -128 107 -33 41 -60 79 -60 84 0 16 -26 20 -51 7z"/>
<path d="M7971 3766 c-8 -9 -16 -36 -18 -59 l-3 -42 15 27 c13 23 20 26 52 22
l38 -4 -32 10 c-24 8 -32 17 -35 37 -3 24 -4 25 -17 9z"/>
<path d="M6208 2483 c7 -3 16 -2 19 1 4 3 -2 6 -13 5 -11 0 -14 -3 -6 -6z"/>
<path d="M6095 2470 c-8 -13 5 -13 25 0 13 8 13 10 -2 10 -9 0 -20 -4 -23 -10z"/>
<path d="M1845 1990 c21 -22 41 -40 44 -40 3 0 -13 18 -34 40 -21 22 -41 40
-44 40 -3 0 13 -18 34 -40z"/>
<path d="M1950 1885 c13 -14 26 -25 28 -25 3 0 -5 11 -18 25 -13 14 -26 25
-28 25 -3 0 5 -11 18 -25z"/>
<path d="M2010 1825 c13 -14 26 -25 28 -25 3 0 -5 11 -18 25 -13 14 -26 25
-28 25 -3 0 5 -11 18 -25z"/>
<path d="M3615 990 c-3 -5 -18 -8 -33 -5 -22 4 -23 4 -7 -3 35 -15 84 -22 90
-12 3 6 -1 7 -10 4 -10 -4 -15 -2 -13 6 4 16 -18 24 -27 10z"/>
<path d="M3695 970 c3 -5 1 -10 -6 -10 -7 0 -10 -2 -7 -5 8 -9 38 6 32 16 -3
5 -10 9 -15 9 -6 0 -7 -4 -4 -10z"/>
<path d="M3718 943 c7 -3 16 -2 19 1 4 3 -2 6 -13 5 -11 0 -14 -3 -6 -6z"/>
<path d="M3760 940 c0 -5 5 -10 11 -10 5 0 7 5 4 10 -3 6 -8 10 -11 10 -2 0
-4 -4 -4 -10z"/>
<path d="M3853 913 c9 -2 23 -2 30 0 6 3 -1 5 -18 5 -16 0 -22 -2 -12 -5z"/>
<path d="M4043 883 c9 -2 23 -2 30 0 6 3 -1 5 -18 5 -16 0 -22 -2 -12 -5z"/>
</g>
</svg>
